<?xml version="1.0" encoding="utf-8"?>
<!-- Generator: Adobe Illustrator 18.0.0, SVG Export Plug-In . SVG Version: 6.00 Build 0)  -->
<!DOCTYPE svg PUBLIC "-//W3C//DTD SVG 1.1//EN" "http://www.w3.org/Graphics/SVG/1.1/DTD/svg11.dtd">
<svg version="1.1" id="Layer_1" xmlns="http://www.w3.org/2000/svg" xmlns:xlink="http://www.w3.org/1999/xlink" x="0px" y="0px"
	 viewBox="0 0 84.5 23.5" enable-background="new 0 0 84.5 23.5" xml:space="preserve">
<g>
	<path d="M0.3,19.2c0.1-0.1,0.2-0.2,0.3-0.3c0.1-0.1,0.3-0.2,0.5-0.4c0.2-0.1,0.3-0.2,0.4-0.3c0.1-0.1,0.1-0.2,0.1-0.3
		c0-0.4,0-0.6,0-0.7c0-0.1,0-0.2,0-0.2c0-0.8,0-1.4,0.1-1.8c0-0.4,0.1-0.7,0.2-0.8l0-0.4l-0.1-0.1c0-0.1,0-0.2,0-0.2
		c0-0.1,0-0.1,0-0.2c0-0.4-0.2-0.7-0.6-0.9c-0.4-0.1-0.6-0.4-0.6-0.7c0-0.1,0.1-0.3,0.3-0.4c0.2-0.2,0.6-0.4,1-0.6
		C1.9,10.4,2,10,2.1,9.5c0.1-0.5,0.1-1,0.2-1.6c0-0.1-0.1-0.2-0.1-0.3c0-0.1,0-0.1,0-0.2c0-0.3,0-0.5,0.1-0.8C2.4,6.5,2.5,6.3,2.6,6
		c0.1-0.1,0.2-0.2,0.3-0.4C3,5.5,3.1,5.4,3.3,5.2C3.4,5.1,3.5,5,3.6,4.9c0.1-0.1,0.1-0.2,0.1-0.2c0-0.1,0-0.1-0.1-0.2
		S3.5,4.5,3.4,4.5C3.1,4.5,2.6,4.6,2,4.7C1.4,4.9,1,5,0.7,5C0.6,5,0.5,5,0.5,5c0,0-0.1-0.1-0.1-0.1c0-0.2,0-0.3,0-0.4
		c0-0.1,0-0.2,0.1-0.3C0.6,4.1,0.8,4,0.8,3.9C0.9,3.8,1,3.7,1,3.6c0,0,0-0.1,0.1-0.2c0.1-0.1,0.2-0.1,0.4-0.2
		c0.7-0.2,1.3-0.4,1.7-0.5c0.4-0.1,0.6-0.2,0.7-0.2c0.5-0.1,0.9-0.2,1.3-0.2C5.6,2.3,6,2.3,6.3,2.3c0,0,0.1,0,0.2,0
		c0.1,0,0.2,0,0.2,0c0.2,0,0.3-0.1,0.5-0.1c0,0,0.2,0,0.4,0.1c0.2,0,0.6,0.1,1,0.2c0.1,0,0.2,0,0.3-0.1c0.2,0,0.4,0,0.6,0.1
		S9.9,2.7,10,2.8c0.1,0,0.2,0,0.3,0c0.2,0,0.4,0.1,0.6,0.2c0.2,0.1,0.3,0.3,0.5,0.5c0.1,0.2,0.2,0.4,0.3,0.6s0.1,0.4,0.1,0.6
		c0,0.4-0.1,0.8-0.3,1.2c-0.2,0.4-0.5,0.7-0.8,1.1c0,0-0.2,0.2-0.6,0.4C9.7,7.8,9.2,8.2,8.5,8.6c-0.1,0-0.2,0.1-0.3,0.2S8,9,7.9,9.1
		C7.2,9.5,6.6,9.9,6,10.3c-0.5,0.3-0.9,0.5-1.2,0.7c-0.3,0.2-0.4,0.3-0.4,0.4c0,0.2,0.1,0.3,0.2,0.4c0.1,0.1,0.3,0.2,0.6,0.3
		c0.4,0.1,0.9,0.3,1.4,0.5s1.1,0.4,1.7,0.7c0.1,0,0.1,0,0.2,0.1s0.2,0.1,0.3,0.2c0.7,0.3,1.2,0.6,1.6,1c0.3,0.4,0.5,0.8,0.5,1.3
		c0,0.7-0.7,1.4-2,2.1S5.6,19.2,3,19.8C3,19.9,3,20,2.9,20.1c-0.1,0.1-0.1,0.2-0.1,0.3c-0.1,0.1-0.1,0.2-0.2,0.2
		c-0.1,0.1-0.2,0.1-0.4,0.1c-0.2,0-0.3-0.1-0.4-0.2s-0.2-0.3-0.2-0.5C1.5,20,1.5,20,1.5,20l-0.7,0.2c-0.1,0-0.2-0.1-0.2-0.1
		c-0.1,0-0.2-0.1-0.2-0.1c-0.1,0-0.1-0.1-0.2-0.2C0,19.7,0,19.6,0,19.5c0-0.1,0-0.1,0.1-0.2C0.1,19.3,0.2,19.3,0.3,19.2z M4.1,13.4
		c-0.1,0-0.2,0.1-0.3,0.3c-0.1,0.2-0.2,0.6-0.2,1c0,0.4-0.1,0.8-0.1,1.2c0,0.4-0.1,0.8-0.1,1.2c0,0.2-0.1,0.4-0.1,0.6l0,0.1l0.1,0
		c0.3-0.1,0.7-0.2,1.1-0.3c0.3,0,0.4,0,0.5-0.1c0.1-0.1,0.7-0.4,2-0.9c0.5-0.2,0.9-0.4,1.2-0.6c0.3-0.2,0.4-0.4,0.4-0.5
		c0-0.1,0-0.2-0.1-0.3S8.2,15.1,8,15.1c-0.4-0.2-0.8-0.5-1.3-0.7c-0.5-0.2-1-0.4-1.5-0.5c-0.1,0-0.2-0.1-0.2-0.1
		c-0.1,0-0.2-0.1-0.3-0.1c-0.2-0.1-0.3-0.1-0.4-0.2C4.2,13.4,4.1,13.4,4.1,13.4z M6.4,4.3c-0.3,0-0.6,0-0.8,0.1S5.3,4.4,5.3,4.5
		C5.2,4.6,5.1,4.7,5.1,4.9C5,5.1,4.9,5.4,4.8,5.7c0,0.2-0.1,0.4-0.1,0.6s0,0.5,0,0.7C4.7,7.2,4.6,7.4,4.5,7.5l0.1,0.3
		c-0.1,0.4-0.2,0.7-0.2,1c0,0.2-0.1,0.4-0.1,0.5c0,0.1,0,0.2,0.1,0.3c0,0,0.1,0.1,0.2,0.1c0.1,0,0.3-0.1,0.6-0.3s0.7-0.4,1.3-0.8
		c0.6-0.4,1-0.7,1.4-0.9s0.5-0.3,0.5-0.3C8.4,7.2,8.5,7.1,8.6,7c0.1-0.1,0.2-0.2,0.3-0.4C9,6.4,9.2,6.3,9.2,6.1
		C9.3,6,9.3,5.9,9.3,5.8c0-0.2-0.1-0.4-0.2-0.5S8.8,5,8.6,4.8c-0.1,0-0.2-0.1-0.4-0.1C7.9,4.6,7.7,4.6,7.4,4.5
		C7.1,4.4,6.9,4.4,6.7,4.3C6.6,4.3,6.5,4.3,6.4,4.3z"/>
	<path d="M11,15.7c0.1-0.2,0.2-0.3,0.4-0.5c0.2-0.2,0.3-0.4,0.6-0.5c0-0.2,0-0.3,0.1-0.5c0-0.2,0-0.3,0-0.5c0-0.1,0.1-0.2,0.1-0.4
		c0.1-0.2,0.1-0.3,0.2-0.5c0.1-0.2,0.2-0.4,0.3-0.7s0.3-0.6,0.5-0.9c0.2-0.2,0.3-0.4,0.5-0.6s0.4-0.4,0.6-0.7
		c0.1-0.1,0.2-0.1,0.3-0.2c0.1-0.1,0.2-0.1,0.3-0.2c0.1,0,0.2-0.1,0.3-0.1s0.3,0,0.4,0c0.2,0,0.4,0,0.5,0.1c0.1,0,0.2,0.1,0.3,0.2
		c0.1,0.1,0.1,0.2,0.2,0.3c0.1,0.1,0.1,0.3,0.2,0.5c0,0.2,0.1,0.3,0.1,0.5c0,0,0,0,0,0.1c0,0.1-0.1,0.2-0.1,0.4l-0.1,0.4
		c-0.1,0.4-0.4,0.8-0.8,1.4c-0.4,0.5-0.9,1.1-1.6,1.8C14.1,14.9,14,15,14,15.1c0,0.1-0.1,0.2-0.1,0.3c0,0.2,0,0.3,0.1,0.5
		c0.1,0.1,0.1,0.2,0.3,0.3c0.1,0,0.2,0.1,0.3,0.1s0.3,0.1,0.5,0.1c0.3,0,0.6-0.1,0.9-0.2c0.3-0.1,0.5-0.2,0.7-0.3
		c0,0,0.1-0.1,0.2-0.1c0.1,0,0.2-0.1,0.3-0.2c0.1,0.2,0.2,0.4,0.3,0.6s0.1,0.3,0.2,0.5c-0.5,0.5-0.9,0.8-1.3,1
		c-0.4,0.2-0.7,0.3-1,0.3c-0.1,0.1-0.3,0.1-0.4,0.2s-0.4,0.1-0.6,0.1c-0.3,0-0.6,0-0.8-0.1S13,18,12.9,17.9
		c-0.1-0.1-0.2-0.2-0.2-0.4c-0.1-0.2-0.2-0.3-0.3-0.6c-0.1-0.2-0.1-0.3-0.2-0.4s-0.1-0.1-0.2-0.1c-0.1,0-0.1,0-0.2,0.1
		s-0.2,0.2-0.3,0.3c0-0.1-0.1-0.3-0.2-0.5C11.2,16.2,11.1,15.9,11,15.7z M14.9,11.7c-0.2,0-0.4,0.2-0.7,0.7c-0.3,0.5-0.5,0.8-0.5,1
		c0,0,0,0.1,0,0.1c0,0,0.1,0,0.1,0c0.1,0,0.2,0,0.2-0.1c0.1-0.1,0.1-0.2,0.2-0.3c0.1-0.1,0.2-0.2,0.3-0.3c0.1-0.1,0.2-0.2,0.2-0.3
		c0.1-0.1,0.2-0.2,0.2-0.3c0-0.1,0.1-0.2,0.1-0.3c0-0.1,0-0.1,0-0.2C15,11.7,14.9,11.7,14.9,11.7z"/>
	<path d="M17.1,15.7c0-0.1,0.1-0.1,0.1-0.2c0.1-0.1,0.1-0.2,0.2-0.2c0.1-0.1,0.2-0.2,0.3-0.3c0.1-0.1,0.3-0.3,0.4-0.4
		c0.1-0.2,0.3-0.4,0.5-0.6s0.5-0.5,0.8-0.9c0.1-0.1,0.3-0.3,0.5-0.5c0.2-0.2,0.4-0.5,0.7-0.8c0.2-0.3,0.5-0.5,0.7-0.6
		c0.3-0.1,0.5-0.2,0.8-0.2c0.3,0,0.5,0.1,0.6,0.3c0.1,0.2,0.2,0.4,0.2,0.8c0,0.2-0.1,0.5-0.2,1.1c-0.1,0.5-0.4,1.2-0.6,2.1
		c-0.1,0.2-0.1,0.3-0.2,0.5c0,0.1-0.1,0.2-0.1,0.3c0,0.1,0,0.1,0,0.2c0,0,0,0.1,0.1,0.2c0,0,0.1-0.1,0.1-0.1c0,0,0.1-0.1,0.1-0.1
		c0.1-0.1,0.2-0.2,0.3-0.4c0.1-0.1,0.3-0.3,0.5-0.4c0.1-0.1,0.2-0.3,0.3-0.4c0.1-0.1,0.2-0.3,0.4-0.4c0,0,0.1-0.1,0.1-0.2
		c0.1-0.1,0.1-0.2,0.2-0.2c0.1-0.1,0.2-0.2,0.4-0.3s0.3-0.2,0.5-0.4c0.2-0.1,0.4-0.2,0.6-0.3c0.2-0.1,0.3-0.1,0.5-0.1
		c0.3,0,0.5,0.1,0.7,0.2c0.2,0.1,0.4,0.3,0.5,0.6c0.2,0.5,0.3,1,0.5,1.4c0.1,0.3,0.2,0.4,0.3,0.6c0.1,0.1,0.2,0.2,0.4,0.2
		c0.1,0,0.2,0,0.3-0.1c0.1,0,0.2-0.1,0.2-0.2l0.5,1.1c-0.1,0.1-0.3,0.2-0.4,0.4c-0.1,0.1-0.3,0.2-0.4,0.4c-0.2,0.2-0.4,0.3-0.5,0.4
		c-0.2,0.1-0.3,0.1-0.5,0.1c-0.2,0-0.4,0-0.5-0.1c-0.2-0.1-0.3-0.2-0.4-0.4c-0.1-0.1-0.1-0.2-0.2-0.4c-0.1-0.2-0.2-0.4-0.3-0.7
		c-0.1-0.1-0.2-0.2-0.4-0.4c-0.1-0.2-0.3-0.4-0.5-0.6l-0.1,0c-0.2,0-0.3,0.1-0.5,0.2c-0.1,0.1-0.3,0.2-0.5,0.4
		c-0.4,0.3-0.6,0.5-0.8,0.6c-0.2,0.1-0.3,0.2-0.3,0.3c-0.1,0.2-0.3,0.4-0.6,0.8c-0.3,0.3-0.6,0.7-1,1.1c-0.1,0.1-0.2,0.2-0.3,0.3
		c-0.1,0.1-0.2,0.2-0.3,0.3c-0.1,0.1-0.2,0.2-0.4,0.2c-0.1,0-0.3,0.1-0.4,0.1c-0.3,0-0.5-0.1-0.5-0.3c0-0.2-0.1-0.4-0.1-0.7
		c0.1-0.3,0.3-0.8,0.4-1.3c0.2-0.5,0.3-1.1,0.5-1.8c0,0,0-0.1,0-0.2c0-0.1,0.1-0.2,0.1-0.3c0-0.1,0.1-0.2,0.1-0.3c0-0.1,0-0.1,0-0.2
		c0-0.1,0-0.1-0.1-0.1c0,0-0.1,0-0.2,0c-0.1,0-0.2,0-0.3,0.1c-0.1,0.1-0.3,0.3-0.5,0.5c-0.2,0.2-0.4,0.4-0.5,0.6s-0.2,0.2-0.3,0.2
		c-0.1,0.1-0.2,0.1-0.3,0.2c-0.1,0.1-0.2,0.2-0.4,0.4c0,0,0,0.1-0.1,0.1c0,0.1-0.1,0.1-0.2,0.2c0-0.1-0.1-0.3-0.2-0.5
		C17.3,16.2,17.2,15.9,17.1,15.7z"/>
	<path d="M37.9,5.3c0-0.1-0.1-0.3-0.2-0.5c-0.1-0.2-0.3-0.4-0.4-0.7c-0.2-0.3-0.3-0.5-0.4-0.6s-0.1-0.3-0.1-0.3
		c0-0.2,0.3-0.6,0.8-1.1s0.9-0.8,1.2-0.8c0.2,0.1,0.3,0.1,0.4,0.2h0.4c0.2,0.1,0.4,0.2,0.7,0.3c0.2,0.1,0.5,0.2,0.7,0.3
		c0.7,0.3,1.1,0.5,1.2,0.7c0.2,0.2,0.4,0.4,0.8,0.6c0,0.1,0.1,0.2,0.3,0.3c0.1,0.2,0.3,0.3,0.6,0.6c0,0,0.1,0.1,0.1,0.1
		s0.1,0.1,0.2,0.2c0.3,0.4,0.6,0.8,0.9,1.1s0.4,0.7,0.5,1c0.2,0.4,0.3,0.8,0.3,1.2c0.1,0.4,0.1,0.9,0.1,1.4c0,0.9-0.1,1.7-0.4,2.3
		c-0.2,0.6-0.6,1.1-1.1,1.4c0,0-0.1,0.1-0.2,0.1c-0.1,0.1-0.2,0.1-0.3,0.2l-0.2,0.2c-0.1,0.2-0.4,0.3-0.7,0.5
		c-0.3,0.2-0.7,0.4-1.3,0.6c-0.7,0.3-1.4,0.6-2.2,0.9c-0.2,0.1-0.4,0.2-0.5,0.3s-0.3,0.1-0.3,0.1c-0.2,0-0.4,0-0.4,0
		c0,0-0.1,0.4-0.1,1c0,0.4,0,0.8-0.1,1.2c0,0.1,0,0.3,0.1,0.5c0.1,0.2,0.2,0.4,0.4,0.6c-0.1,0.2-0.2,0.3-0.2,0.5
		c-0.1,0.2-0.2,0.3-0.3,0.5c-0.1,0.2-0.3,0.4-0.5,0.5c-0.2,0.1-0.3,0.2-0.4,0.2c-0.3,0-0.5-0.1-0.6-0.4c-0.1-0.3-0.2-0.7-0.2-1.3
		c0-0.2,0-0.4,0.1-0.7c0.1-0.3,0.1-0.6,0.3-1l-0.1-0.7c-0.1,0-0.2-0.1-0.3-0.2s-0.2-0.1-0.3-0.2c-0.1-0.1-0.2-0.1-0.3-0.2
		s-0.1-0.2-0.1-0.2c0-0.1,0.2-0.2,0.6-0.4c0.4-0.2,0.6-0.4,0.6-0.8c0-0.1,0-0.2-0.1-0.4s-0.1-0.3-0.1-0.4c0.1-0.5,0.2-0.9,0.2-1.4
		c0,0,0-0.2,0.1-0.4s0.1-0.6,0.1-1c0-0.1,0.1-0.3,0.1-0.5c0-0.2,0.1-0.5,0.2-0.7l-0.1-0.4L37.9,5.3z M38.9,3.9c0,0-0.1,0-0.1,0
		c0,0,0,0.1,0,0.1c1,1,1.4,1.7,1.4,2.2c0,0.1-0.2,0.8-0.5,1.9s-0.5,1.8-0.6,2l0.1,0.5c-0.2,0.8-0.4,1.5-0.5,2.1
		c-0.1,0.6-0.2,1.1-0.2,1.4c0,0.1,0,0.2,0.1,0.2s0.1,0.1,0.2,0.1c0.1,0,0.2,0,0.4-0.1c0.2-0.1,0.5-0.2,0.8-0.4
		c0.2-0.1,0.4-0.2,0.6-0.3s0.4-0.2,0.6-0.3c0.1,0,0.2-0.1,0.3-0.2s0.2-0.2,0.4-0.3c0.2-0.1,0.3-0.3,0.5-0.4s0.2-0.2,0.2-0.2
		c0.3-0.2,0.6-0.5,0.8-0.9c0.2-0.4,0.3-0.8,0.3-1.3c0-0.3,0-0.6-0.1-0.9c-0.1-0.3-0.2-0.6-0.3-1l0-0.3c0,0,0-0.1-0.1-0.1
		c0-0.1-0.1-0.1-0.1-0.2c0,0-0.1-0.1-0.2-0.2c-0.1-0.1-0.1-0.2-0.2-0.3c-0.1-0.3-0.4-0.6-0.7-0.9c-0.3-0.4-0.8-0.8-1.4-1.3
		c-0.1-0.1-0.1-0.1-0.2-0.2c-0.1-0.1-0.2-0.2-0.3-0.2c-0.2-0.1-0.3-0.2-0.5-0.2S39.2,4,38.9,3.9z"/>
	<path d="M46.4,15.1l1.1-0.7c0,0,0.1-0.1,0.1-0.2c0.1-0.1,0.1-0.2,0.2-0.3c0.1-0.1,0.1-0.2,0.2-0.3s0.2-0.1,0.3-0.2
		c0.1-0.1,0.2-0.2,0.3-0.3c0.1-0.1,0.3-0.3,0.5-0.4c0.1,0,0.2-0.1,0.3-0.2c0.1-0.1,0.3-0.2,0.5-0.4c0.7-0.7,1.4-1.2,1.9-1.6
		c0.6-0.3,1-0.5,1.4-0.5c0.2,0,0.4,0,0.5,0.1s0.2,0.2,0.2,0.4c0,0.2,0,0.3-0.1,0.5s-0.2,0.2-0.3,0.3c-0.2,0.1-0.4,0.3-0.7,0.5
		c-0.1,0.2-0.3,0.4-0.5,0.5s-0.4,0.4-0.7,0.6c-0.1,0.1-0.2,0.2-0.2,0.3c0,0-0.1,0.1-0.2,0.2c-0.1,0.1-0.3,0.2-0.5,0.4
		c-0.1,0.2-0.3,0.4-0.5,0.7c-0.3,0.3-0.6,0.6-1.1,1c-0.1,0.1-0.2,0.2-0.3,0.4c-0.1,0.2-0.3,0.5-0.6,0.8l0.1,0.1
		c0.2-0.1,0.4-0.2,0.6-0.3c0.2-0.1,0.4-0.3,0.6-0.5c0.3-0.3,0.5-0.5,0.7-0.6c0.2-0.2,0.3-0.3,0.4-0.3c0.1,0,0.1-0.1,0.2-0.1
		c0.1,0,0.1-0.1,0.2-0.1c0.4-0.4,0.7-0.8,1-1s0.6-0.3,0.9-0.3c0.2,0,0.3,0.1,0.4,0.2c0.1,0.1,0.1,0.3,0.2,0.6c0,0.4,0,0.8,0,1.2
		c0,0.3,0.1,0.5,0.2,0.7c0.2,0.2,0.3,0.3,0.6,0.3c0.1,0,0.1,0,0.2-0.1c0.1,0,0.1-0.1,0.2-0.2c0.1-0.1,0.1-0.1,0.2-0.2
		c0.1-0.1,0.1-0.1,0.2-0.2c0,0,0.1,0,0.1-0.1c0.1,0,0.1-0.1,0.2-0.1c0.1,0.2,0.2,0.5,0.3,0.6c0.1,0.2,0.1,0.3,0.2,0.5
		c-0.2,0.2-0.4,0.3-0.6,0.5c-0.2,0.2-0.4,0.4-0.6,0.5c-0.2,0.2-0.5,0.3-0.7,0.4c-0.2,0.1-0.5,0.1-0.7,0.1c-0.5,0-0.9-0.1-1.2-0.5
		c-0.3-0.3-0.5-0.8-0.5-1.4c0-0.1,0-0.1,0-0.2c0-0.1-0.1-0.2-0.1-0.2c0,0-0.1,0.1-0.1,0.1c0,0-0.1,0.1-0.2,0.2
		c-0.1,0.1-0.2,0.2-0.4,0.3c-0.2,0.1-0.3,0.3-0.6,0.4c-0.3,0.3-0.5,0.5-0.7,0.7c-0.2,0.2-0.3,0.3-0.4,0.4c-0.2,0.1-0.4,0.3-0.6,0.4
		s-0.5,0.3-0.7,0.4c-0.2,0.1-0.3,0.2-0.4,0.2c-0.1,0.1-0.2,0.1-0.3,0.1c-0.4,0-0.7-0.1-0.9-0.3S46,18.6,46,18.3c0-0.2,0-0.4,0.1-0.6
		c0.1-0.2,0.2-0.4,0.4-0.6c0-0.1,0-0.2,0-0.3c0,0,0-0.1,0-0.1c0,0,0-0.1-0.1-0.2c0-0.1-0.1-0.2-0.2-0.4s-0.1-0.3-0.2-0.5
		c0,0,0.1-0.1,0.1-0.2C46.3,15.4,46.3,15.3,46.4,15.1z"/>
	<path d="M55.4,15.7c0,0,0.1-0.1,0.2-0.2c0.1-0.1,0.3-0.2,0.5-0.3c0.1-0.1,0.3-0.2,0.5-0.4c0.2-0.2,0.4-0.4,0.6-0.8
		c0.2-0.3,0.4-0.5,0.5-0.7s0.3-0.4,0.3-0.6c0.3-0.6,0.6-1.1,0.9-1.4c0.3-0.3,0.6-0.5,0.9-0.5c0.1,0,0.2,0,0.3,0.1
		c0.1,0.1,0.1,0.1,0.1,0.3c0,0.2,0,0.6-0.1,1.1c0,0.5-0.1,0.9-0.1,1.1c0,0.1,0,0.3,0,0.5c0,0.2,0,0.5,0.1,0.9c0,0.4,0.1,0.7,0.1,0.9
		c0,0.2,0,0.3,0.1,0.4l0.1,0.1c0.2,0,0.7-0.9,1.5-2.7s1.5-2.7,2-2.7c0.2,0,0.4,0.1,0.5,0.2s0.1,0.3,0.1,0.6c0,0.1,0,0.2-0.1,0.3
		c0,0.1-0.1,0.2-0.2,0.2c0,0-0.1,0.1-0.1,0.1c0,0.1,0,0.2,0,0.3c-0.1,0.3-0.1,0.6-0.2,0.9c0,0.1,0,0.1,0.1,0.2c0,0.1,0,0.1,0.1,0.2
		c0-0.1,0,0.1-0.1,0.5s-0.1,1-0.1,1.8c0,0,0,0.1,0,0.2c0,0.1,0,0.2,0,0.3c0,0.1,0.1,0.2,0.2,0.3c0.2,0,0.4-0.2,0.7-0.7
		c0.3-0.5,0.7-1.2,1.2-2.2c0-0.2,0.1-0.4,0.1-0.6c0.1-0.2,0.1-0.4,0.2-0.6c0.1-0.2,0.1-0.4,0.2-0.6c0.1-0.2,0.2-0.4,0.3-0.6
		l-0.1-0.4c0-0.2,0.1-0.3,0.1-0.5c0-0.2,0.1-0.3,0.1-0.5c0.1-0.2,0.1-0.4,0.2-0.5c0.1-0.1,0.2-0.2,0.4-0.2c0.1,0,0.2,0,0.3,0.1
		c0.1,0.1,0.1,0.2,0.1,0.3c0,0.4,0,0.8-0.1,1.3s-0.2,0.9-0.4,1.4c-0.2,0.5-0.4,1-0.6,1.5c-0.2,0.5-0.5,0.9-0.7,1.3
		c-0.2,0.5-0.5,1.1-0.9,1.8c-0.3,0.4-0.5,0.7-0.6,1s-0.3,0.4-0.3,0.4c-0.2,0.3-0.4,0.5-0.7,0.6c-0.2,0.1-0.5,0.2-0.7,0.2
		c-0.3,0-0.5-0.2-0.7-0.7c-0.2-0.5-0.2-1.2-0.2-2.1c0-0.1,0-0.2,0.1-0.4c0-0.1,0.1-0.2,0.1-0.3l-0.1-0.1c0,0-0.1,0.1-0.2,0.2
		c-0.1,0.1-0.2,0.3-0.3,0.6c-0.2,0.3-0.3,0.6-0.5,0.9c0,0.1,0,0.2-0.1,0.3c0,0.1-0.1,0.2-0.1,0.3l-0.4,0.8c-0.1,0.1-0.1,0.3-0.2,0.4
		s-0.1,0.3-0.2,0.4c-0.1,0.1-0.2,0.2-0.3,0.3c-0.1,0.1-0.3,0.1-0.5,0.1c0,0-0.1,0-0.1,0c0,0-0.1,0-0.2-0.1l-0.2-0.2
		c-0.1-0.1-0.2-0.5-0.3-1.3s-0.3-2-0.6-3.5c-0.1,0-0.2,0.1-0.2,0.2c-0.1,0.1-0.1,0.1-0.2,0.2c-0.1,0.1-0.2,0.2-0.3,0.3
		s-0.2,0.3-0.4,0.4c-0.1,0.1-0.3,0.3-0.5,0.4c-0.3,0.2-0.4,0.3-0.5,0.5c-0.1-0.2-0.1-0.3-0.2-0.5C55.6,16.1,55.5,15.9,55.4,15.7z"/>
	<path d="M67.7,15.7c0.1-0.1,0.1-0.2,0.2-0.3c0.1-0.1,0.2-0.2,0.3-0.4l0.8-0.7c0,0,0.1-0.1,0.1-0.1c0,0,0-0.1,0-0.2
		c0-0.1,0-0.2,0-0.3c0-0.2,0-0.5,0.1-0.9c0.1-0.4,0.1-0.7,0.2-0.8l-0.1-0.2c0.1-0.5,0.3-1.1,0.4-1.8s0.4-1.3,0.7-2.1
		c0.1-0.1,0.2-0.3,0.3-0.5S70.9,7,71,6.7c0.1-0.4,0.3-0.9,0.5-1.3C71.7,4.9,72,4.5,72.3,4c0.4-0.6,0.7-1.1,1-1.5
		C73.6,2.2,73.9,2,74.1,2c0.5,0,0.8,0.1,1,0.3c0.2,0.2,0.3,0.5,0.3,1c0,0.1,0,0.3-0.1,0.6c0,0.3-0.1,0.5-0.1,0.6s0,0.3-0.1,0.6
		c-0.1,0.3-0.1,0.5-0.1,0.7c0,0.1,0,0.1-0.1,0.2l0,0.2c0,0.1-0.1,0.3-0.1,0.4c-0.1,0.2-0.2,0.4-0.3,0.6c-0.1,0.2-0.1,0.4-0.2,0.7
		s-0.2,0.6-0.3,0.9c0,0.1-0.1,0.2-0.2,0.3c-0.1,0.1-0.2,0.2-0.2,0.4c0,0.1-0.1,0.2-0.1,0.4c-0.1,0.1-0.1,0.3-0.2,0.5
		c0,0.1-0.1,0.2-0.2,0.3c-0.1,0.1-0.2,0.3-0.3,0.4c0,0.1-0.1,0.2-0.2,0.3c-0.1,0.1-0.1,0.3-0.2,0.4c-0.1,0.1-0.2,0.3-0.4,0.5
		c-0.1,0.2-0.3,0.4-0.5,0.7c-0.3,0.4-0.5,0.9-0.8,1.3c0,0.8,0.2,1.4,0.5,1.8c0.3,0.4,0.8,0.6,1.4,0.6c0,0,0.2,0,0.4-0.1
		c0.2-0.1,0.5-0.1,0.8-0.3c0.1-0.1,0.2-0.2,0.4-0.3c0.1-0.1,0.3-0.3,0.5-0.4l0.5,1.1c-0.2,0.2-0.4,0.4-0.6,0.6
		c-0.2,0.2-0.4,0.4-0.6,0.6c-0.3,0.2-0.5,0.4-0.8,0.5s-0.5,0.2-0.8,0.2c-0.1,0-0.3,0-0.6,0c-0.3,0-0.5,0-0.6,0
		c-0.5,0-0.8-0.2-1.1-0.5c-0.3-0.4-0.5-0.9-0.6-1.6c0-0.1,0-0.1-0.1-0.2c0-0.1-0.1-0.1-0.2-0.2c-0.1,0.1-0.2,0.2-0.4,0.4
		s-0.3,0.3-0.5,0.5L67.7,15.7z M73.6,6.1L73.6,6.1c-0.5,0.4-0.9,0.8-1.1,1.2c-0.2,0.4-0.3,0.8-0.3,1.1c0,0.1,0,0.2-0.1,0.3
		C72,8.8,71.9,9,71.8,9.2c-0.1,0.3-0.3,0.5-0.4,0.8c-0.2,0.5-0.3,0.8-0.4,1.1c-0.1,0.3-0.1,0.5-0.1,0.6l0.1,0.1
		c0.1,0,0.2-0.1,0.3-0.2c0.1-0.1,0.2-0.3,0.4-0.6c0.1-0.1,0.2-0.3,0.3-0.5c0.1-0.2,0.3-0.4,0.4-0.7c0.1-0.2,0.3-0.6,0.6-1.4
		c0.3-0.7,0.4-1.2,0.5-1.4c0-0.2,0-0.3,0.1-0.5C73.5,6.4,73.5,6.2,73.6,6.1z"/>
	<path d="M74.6,15.7c0.1-0.2,0.2-0.3,0.4-0.5c0.2-0.2,0.3-0.4,0.6-0.5c0-0.2,0-0.3,0.1-0.5c0-0.2,0-0.3,0-0.5c0-0.1,0.1-0.2,0.1-0.4
		c0.1-0.2,0.1-0.3,0.2-0.5c0.1-0.2,0.2-0.4,0.3-0.7s0.3-0.6,0.5-0.9c0.2-0.2,0.3-0.4,0.5-0.6s0.4-0.4,0.6-0.7
		c0.1-0.1,0.2-0.1,0.3-0.2c0.1-0.1,0.2-0.1,0.3-0.2c0.1,0,0.2-0.1,0.3-0.1s0.3,0,0.4,0c0.2,0,0.4,0,0.5,0.1c0.1,0,0.2,0.1,0.3,0.2
		c0.1,0.1,0.1,0.2,0.2,0.3c0.1,0.1,0.1,0.3,0.2,0.5c0,0.2,0.1,0.3,0.1,0.5c0,0,0,0,0,0.1c0,0.1-0.1,0.2-0.1,0.4l-0.1,0.4
		c-0.1,0.4-0.4,0.8-0.8,1.4c-0.4,0.5-0.9,1.1-1.6,1.8c-0.1,0.1-0.1,0.1-0.1,0.2c0,0.1-0.1,0.2-0.1,0.3c0,0.2,0,0.3,0.1,0.5
		c0.1,0.1,0.1,0.2,0.3,0.3c0.1,0,0.2,0.1,0.3,0.1s0.3,0.1,0.5,0.1c0.3,0,0.6-0.1,0.9-0.2c0.3-0.1,0.5-0.2,0.7-0.3
		c0,0,0.1-0.1,0.2-0.1c0.1,0,0.2-0.1,0.3-0.2c0.1,0.2,0.2,0.4,0.3,0.6s0.1,0.3,0.2,0.5c-0.5,0.5-0.9,0.8-1.3,1
		c-0.4,0.2-0.7,0.3-1,0.3c-0.1,0.1-0.3,0.1-0.4,0.2s-0.4,0.1-0.6,0.1c-0.3,0-0.6,0-0.8-0.1s-0.4-0.2-0.6-0.4
		c-0.1-0.1-0.2-0.2-0.2-0.4c-0.1-0.2-0.2-0.3-0.3-0.6c-0.1-0.2-0.1-0.3-0.2-0.4s-0.1-0.1-0.2-0.1c-0.1,0-0.1,0-0.2,0.1
		s-0.2,0.2-0.3,0.3c0-0.1-0.1-0.3-0.2-0.5C74.8,16.2,74.7,15.9,74.6,15.7z M78.5,11.7c-0.2,0-0.4,0.2-0.7,0.7
		c-0.3,0.5-0.5,0.8-0.5,1c0,0,0,0.1,0,0.1c0,0,0.1,0,0.1,0c0.1,0,0.2,0,0.2-0.1c0.1-0.1,0.1-0.2,0.2-0.3c0.1-0.1,0.2-0.2,0.3-0.3
		c0.1-0.1,0.2-0.2,0.2-0.3c0.1-0.1,0.2-0.2,0.2-0.3c0-0.1,0.1-0.2,0.1-0.3c0-0.1,0-0.1,0-0.2C78.6,11.7,78.6,11.7,78.5,11.7z"/>
</g>
</svg>
